<svg width="164" height="24" viewBox="0 0 164 24" fill="none" xmlns="http://www.w3.org/2000/svg">
<path fill-rule="evenodd" clip-rule="evenodd" d="M22.9644 7.1955C22.9414 7.245 22.9134 7.2925 22.8729 7.3335L8.91992 21.286C8.86542 21.38 8.78992 21.462 8.68242 21.503L1.75642 23.443C1.74192 23.45 1.72542 23.451 1.70942 23.456L1.68592 23.463C1.68192 23.4645 1.67742 23.4635 1.67392 23.465C1.62692 23.4775 1.58042 23.488 1.53092 23.4875C1.48192 23.489 1.43642 23.48 1.38992 23.467C1.37942 23.464 1.36992 23.466 1.35942 23.4625C1.35542 23.461 1.35292 23.4575 1.34892 23.456C1.30492 23.4395 1.26692 23.4145 1.22892 23.3855C1.20942 23.3715 1.18892 23.359 1.17242 23.3425C1.15592 23.326 1.14342 23.3055 1.12942 23.286C1.10042 23.2485 1.07592 23.21 1.05892 23.166C1.05692 23.162 1.05392 23.1595 1.05242 23.1555C1.04892 23.1455 1.05092 23.1355 1.04792 23.125C1.03542 23.079 1.02642 23.033 1.02742 22.9845C1.02742 22.9345 1.03742 22.888 1.04992 22.841C1.05192 22.837 1.05042 22.833 1.05192 22.8295L1.05892 22.805C1.06442 22.79 1.06542 22.7735 1.07192 22.7585L3.01192 15.8325C3.05292 15.7245 3.13492 15.6505 3.22892 15.595L16.9684 1.855C16.9884 1.8325 17.0119 1.8135 17.0324 1.7915L17.1819 1.642C17.1894 1.6345 17.1989 1.632 17.2069 1.625C17.9289 0.935 18.8979 0.5 19.9764 0.5C22.1984 0.5 23.9999 2.3015 23.9999 4.5235C23.9999 5.554 23.6024 6.4845 22.9644 7.1955ZM21.0749 7.75L19.2654 5.9405L7.44542 17.761C7.44742 17.765 7.45242 17.7665 7.45442 17.7705L8.64092 20.184L21.0749 7.75ZM2.27942 22.2365L3.67192 21.847L2.66892 20.8445L2.27942 22.2365ZM2.97142 19.765L4.75042 21.5445L7.81042 20.687C7.81042 20.687 6.51742 18.001 6.51542 18L3.82842 16.705L2.97142 19.765ZM6.74492 17.062C6.74892 17.064 6.75042 17.0685 6.75442 17.071L18.5749 5.25L16.7654 3.4405L4.33142 15.8745L6.74492 17.062ZM19.9609 1.5C19.0699 1.5 18.2749 1.888 17.7164 2.497L17.7129 2.4935L17.4559 2.75L21.7654 7.0595L22.0289 6.7955L22.0259 6.7925C22.6304 6.2345 23.0154 5.442 23.0154 4.5545C23.0154 2.8675 21.6479 1.5 19.9609 1.5Z" fill="#8C4C27"/>
<path d="M48.8682 16.0479L51.417 5.70312H52.7969L52.8848 7.88281L50.1602 18.5H48.7012L48.8682 16.0479ZM47.2598 5.70312L49.3516 16.0127V18.5H47.7607L44.8604 5.70312H47.2598ZM55.5303 15.9688L57.5869 5.70312H59.9951L57.0947 18.5H55.5039L55.5303 15.9688ZM53.4561 5.70312L56.0049 16.083L56.1543 18.5H54.6953L51.9795 7.87402L52.085 5.70312H53.4561ZM63.4756 10.9326V18.5H61.1553V8.99023H63.3525L63.4756 10.9326ZM66.3672 8.92871L66.332 11.0908C66.2031 11.0674 66.0566 11.0498 65.8926 11.0381C65.7344 11.0264 65.585 11.0205 65.4443 11.0205C65.0869 11.0205 64.7734 11.0703 64.5039 11.1699C64.2344 11.2637 64.0088 11.4014 63.8271 11.583C63.6514 11.7646 63.5166 11.9873 63.4229 12.251C63.3291 12.5088 63.2764 12.8018 63.2646 13.1299L62.7637 13.0684C62.7637 12.4648 62.8252 11.9053 62.9482 11.3896C63.0713 10.874 63.25 10.4229 63.4844 10.0361C63.7188 9.64941 64.0117 9.35059 64.3633 9.13965C64.7207 8.92285 65.1309 8.81445 65.5938 8.81445C65.7227 8.81445 65.8604 8.82617 66.0068 8.84961C66.1592 8.86719 66.2793 8.89355 66.3672 8.92871ZM70.1025 8.99023V18.5H67.7734V8.99023H70.1025ZM67.6152 6.50293C67.6152 6.15723 67.7324 5.87012 67.9668 5.6416C68.207 5.41309 68.5293 5.29883 68.9336 5.29883C69.3379 5.29883 69.6572 5.41309 69.8916 5.6416C70.1318 5.87012 70.252 6.15723 70.252 6.50293C70.252 6.84277 70.1318 7.12695 69.8916 7.35547C69.6572 7.58398 69.3379 7.69824 68.9336 7.69824C68.5293 7.69824 68.207 7.58398 67.9668 7.35547C67.7324 7.12695 67.6152 6.84277 67.6152 6.50293ZM76.8174 8.99023V10.6602H71.3682V8.99023H76.8174ZM72.8271 6.65234H75.1562V15.7578C75.1562 16.0391 75.1943 16.2559 75.2705 16.4082C75.3467 16.5605 75.4609 16.6631 75.6133 16.7158C75.7656 16.7686 75.9473 16.7949 76.1582 16.7949C76.3105 16.7949 76.4512 16.7861 76.5801 16.7686C76.709 16.751 76.8174 16.7334 76.9053 16.7158L76.9141 18.4561C76.7207 18.5205 76.501 18.5732 76.2549 18.6143C76.0146 18.6553 75.7422 18.6758 75.4375 18.6758C74.916 18.6758 74.459 18.5879 74.0664 18.4121C73.6738 18.2305 73.3691 17.9404 73.1523 17.542C72.9355 17.1377 72.8271 16.6045 72.8271 15.9424V6.65234ZM82.6357 18.6758C81.915 18.6758 81.2676 18.5586 80.6934 18.3242C80.1191 18.0898 79.6299 17.7646 79.2256 17.3486C78.8271 16.9268 78.5195 16.4375 78.3027 15.8809C78.0918 15.3184 77.9863 14.7148 77.9863 14.0703V13.7188C77.9863 12.9863 78.0918 12.3213 78.3027 11.7236C78.5137 11.1201 78.8125 10.6016 79.1992 10.168C79.5859 9.73438 80.0488 9.40039 80.5879 9.16602C81.127 8.93164 81.7217 8.81445 82.3721 8.81445C83.0459 8.81445 83.6406 8.92871 84.1562 9.15723C84.6719 9.37988 85.1025 9.69629 85.4482 10.1064C85.7939 10.5166 86.0547 11.0088 86.2305 11.583C86.4062 12.1514 86.4941 12.7812 86.4941 13.4727V14.4482H79.041V12.8486H84.209V12.6729C84.1973 12.3037 84.127 11.9668 83.998 11.6621C83.8691 11.3516 83.6699 11.1055 83.4004 10.9238C83.1309 10.7363 82.7822 10.6426 82.3545 10.6426C82.0088 10.6426 81.707 10.7188 81.4492 10.8711C81.1973 11.0176 80.9863 11.2285 80.8164 11.5039C80.6523 11.7734 80.5293 12.0957 80.4473 12.4707C80.3652 12.8457 80.3242 13.2617 80.3242 13.7188V14.0703C80.3242 14.4688 80.377 14.8379 80.4824 15.1777C80.5938 15.5176 80.7549 15.8135 80.9658 16.0654C81.1826 16.3115 81.4404 16.5049 81.7393 16.6455C82.0439 16.7803 82.3896 16.8477 82.7764 16.8477C83.2627 16.8477 83.7021 16.7539 84.0947 16.5664C84.4932 16.373 84.8389 16.0889 85.1318 15.7139L86.3008 16.9268C86.1016 17.2197 85.832 17.501 85.4922 17.7705C85.1582 18.04 84.7539 18.2598 84.2793 18.4297C83.8047 18.5938 83.2568 18.6758 82.6357 18.6758ZM97.7705 16.4785V12.0928C97.7705 11.7705 97.7148 11.4922 97.6035 11.2578C97.4922 11.0234 97.3223 10.8418 97.0938 10.7129C96.8652 10.584 96.5752 10.5195 96.2236 10.5195C95.9131 10.5195 95.6406 10.5723 95.4062 10.6777C95.1777 10.7832 95.002 10.9326 94.8789 11.126C94.7559 11.3135 94.6943 11.5303 94.6943 11.7764H92.3652C92.3652 11.3838 92.459 11.0117 92.6465 10.6602C92.834 10.3027 93.1006 9.98633 93.4463 9.71094C93.7979 9.42969 94.2168 9.20996 94.7031 9.05176C95.1953 8.89355 95.7461 8.81445 96.3555 8.81445C97.0762 8.81445 97.7178 8.9375 98.2803 9.18359C98.8486 9.42383 99.2939 9.78711 99.6162 10.2734C99.9443 10.7598 100.108 11.3721 100.108 12.1104V16.2588C100.108 16.7334 100.138 17.1406 100.196 17.4805C100.261 17.8145 100.354 18.1045 100.478 18.3506V18.5H98.1133C98.002 18.2598 97.917 17.9551 97.8584 17.5859C97.7998 17.2109 97.7705 16.8418 97.7705 16.4785ZM98.0957 12.708L98.1133 14.0879H96.6455C96.2822 14.0879 95.9629 14.126 95.6875 14.2021C95.4121 14.2725 95.1865 14.3779 95.0107 14.5186C94.835 14.6533 94.7031 14.8174 94.6152 15.0107C94.5273 15.1982 94.4834 15.4121 94.4834 15.6523C94.4834 15.8867 94.5361 16.0977 94.6416 16.2852C94.7529 16.4727 94.9111 16.6221 95.1162 16.7334C95.3271 16.8389 95.5732 16.8916 95.8545 16.8916C96.2646 16.8916 96.6221 16.8096 96.9268 16.6455C97.2314 16.4756 97.4688 16.2705 97.6387 16.0303C97.8086 15.79 97.8994 15.5615 97.9111 15.3447L98.5791 16.3467C98.4971 16.5869 98.374 16.8418 98.21 17.1113C98.0459 17.3809 97.835 17.6328 97.5771 17.8672C97.3193 18.1016 97.0088 18.2949 96.6455 18.4473C96.2822 18.5996 95.8604 18.6758 95.3799 18.6758C94.7646 18.6758 94.2139 18.5527 93.7275 18.3066C93.2412 18.0605 92.8574 17.7236 92.5762 17.2959C92.2949 16.8682 92.1543 16.3818 92.1543 15.8369C92.1543 15.333 92.248 14.8877 92.4355 14.501C92.623 14.1143 92.9014 13.7891 93.2705 13.5254C93.6396 13.2559 94.0967 13.0537 94.6416 12.9189C95.1924 12.7783 95.8223 12.708 96.5312 12.708H98.0957ZM106.858 5.70312H111.508C112.48 5.70312 113.315 5.84961 114.013 6.14258C114.71 6.43555 115.246 6.86914 115.621 7.44336C115.996 8.01758 116.184 8.72363 116.184 9.56152C116.184 10.2236 116.066 10.7979 115.832 11.2842C115.598 11.7705 115.267 12.1777 114.839 12.5059C114.417 12.834 113.919 13.0918 113.345 13.2793L112.589 13.666H108.484L108.467 11.7588H111.534C112.032 11.7588 112.445 11.6709 112.773 11.4951C113.102 11.3193 113.348 11.0762 113.512 10.7656C113.682 10.4551 113.767 10.1006 113.767 9.70215C113.767 9.27441 113.685 8.90527 113.521 8.59473C113.356 8.27832 113.107 8.03516 112.773 7.86523C112.439 7.69531 112.018 7.61035 111.508 7.61035H109.275V18.5H106.858V5.70312ZM114.083 18.5L111.121 12.7695L113.679 12.7607L116.676 18.377V18.5H114.083ZM122.397 18.6758C121.677 18.6758 121.029 18.5586 120.455 18.3242C119.881 18.0898 119.392 17.7646 118.987 17.3486C118.589 16.9268 118.281 16.4375 118.064 15.8809C117.854 15.3184 117.748 14.7148 117.748 14.0703V13.7188C117.748 12.9863 117.854 12.3213 118.064 11.7236C118.275 11.1201 118.574 10.6016 118.961 10.168C119.348 9.73438 119.811 9.40039 120.35 9.16602C120.889 8.93164 121.483 8.81445 122.134 8.81445C122.808 8.81445 123.402 8.92871 123.918 9.15723C124.434 9.37988 124.864 9.69629 125.21 10.1064C125.556 10.5166 125.816 11.0088 125.992 11.583C126.168 12.1514 126.256 12.7812 126.256 13.4727V14.4482H118.803V12.8486H123.971V12.6729C123.959 12.3037 123.889 11.9668 123.76 11.6621C123.631 11.3516 123.432 11.1055 123.162 10.9238C122.893 10.7363 122.544 10.6426 122.116 10.6426C121.771 10.6426 121.469 10.7188 121.211 10.8711C120.959 11.0176 120.748 11.2285 120.578 11.5039C120.414 11.7734 120.291 12.0957 120.209 12.4707C120.127 12.8457 120.086 13.2617 120.086 13.7188V14.0703C120.086 14.4688 120.139 14.8379 120.244 15.1777C120.355 15.5176 120.517 15.8135 120.728 16.0654C120.944 16.3115 121.202 16.5049 121.501 16.6455C121.806 16.7803 122.151 16.8477 122.538 16.8477C123.024 16.8477 123.464 16.7539 123.856 16.5664C124.255 16.373 124.601 16.0889 124.894 15.7139L126.062 16.9268C125.863 17.2197 125.594 17.501 125.254 17.7705C124.92 18.04 124.516 18.2598 124.041 18.4297C123.566 18.5938 123.019 18.6758 122.397 18.6758ZM130.844 16.7422L133.059 8.99023H135.484L132.224 18.5H130.747L130.844 16.7422ZM129.227 8.99023L131.468 16.7598L131.547 18.5H130.062L126.792 8.99023H129.227ZM139.167 8.99023V18.5H136.838V8.99023H139.167ZM136.68 6.50293C136.68 6.15723 136.797 5.87012 137.031 5.6416C137.271 5.41309 137.594 5.29883 137.998 5.29883C138.402 5.29883 138.722 5.41309 138.956 5.6416C139.196 5.87012 139.316 6.15723 139.316 6.50293C139.316 6.84277 139.196 7.12695 138.956 7.35547C138.722 7.58398 138.402 7.69824 137.998 7.69824C137.594 7.69824 137.271 7.58398 137.031 7.35547C136.797 7.12695 136.68 6.84277 136.68 6.50293ZM145.653 18.6758C144.933 18.6758 144.285 18.5586 143.711 18.3242C143.137 18.0898 142.647 17.7646 142.243 17.3486C141.845 16.9268 141.537 16.4375 141.32 15.8809C141.109 15.3184 141.004 14.7148 141.004 14.0703V13.7188C141.004 12.9863 141.109 12.3213 141.32 11.7236C141.531 11.1201 141.83 10.6016 142.217 10.168C142.604 9.73438 143.066 9.40039 143.605 9.16602C144.145 8.93164 144.739 8.81445 145.39 8.81445C146.063 8.81445 146.658 8.92871 147.174 9.15723C147.689 9.37988 148.12 9.69629 148.466 10.1064C148.812 10.5166 149.072 11.0088 149.248 11.583C149.424 12.1514 149.512 12.7812 149.512 13.4727V14.4482H142.059V12.8486H147.227V12.6729C147.215 12.3037 147.145 11.9668 147.016 11.6621C146.887 11.3516 146.688 11.1055 146.418 10.9238C146.148 10.7363 145.8 10.6426 145.372 10.6426C145.026 10.6426 144.725 10.7188 144.467 10.8711C144.215 11.0176 144.004 11.2285 143.834 11.5039C143.67 11.7734 143.547 12.0957 143.465 12.4707C143.383 12.8457 143.342 13.2617 143.342 13.7188V14.0703C143.342 14.4688 143.395 14.8379 143.5 15.1777C143.611 15.5176 143.772 15.8135 143.983 16.0654C144.2 16.3115 144.458 16.5049 144.757 16.6455C145.062 16.7803 145.407 16.8477 145.794 16.8477C146.28 16.8477 146.72 16.7539 147.112 16.5664C147.511 16.373 147.856 16.0889 148.149 15.7139L149.318 16.9268C149.119 17.2197 148.85 17.501 148.51 17.7705C148.176 18.04 147.771 18.2598 147.297 18.4297C146.822 18.5938 146.274 18.6758 145.653 18.6758ZM153.713 16.2148L155.796 8.99023H157.272L156.833 11.4863L154.732 18.5H153.458L153.713 16.2148ZM152.562 8.99023L154.126 16.2324L154.267 18.5H152.799L150.303 8.99023H152.562ZM159.206 16.127L160.735 8.99023H162.985L160.507 18.5H159.039L159.206 16.127ZM157.501 8.99023L159.566 16.1445L159.839 18.5H158.564L156.446 11.4863L156.016 8.99023H157.501Z" fill="#8C4C27"/>
</svg>
