<svg width="24" height="20" viewBox="0 0 24 20" fill="none" xmlns="http://www.w3.org/2000/svg">
<path d="M1.27006 19.75C1.16314 19.7506 1.0573 19.7289 0.959492 19.6861C0.861682 19.6434 0.774118 19.5807 0.702556 19.502C0.630994 19.4234 0.577054 19.3307 0.544282 19.2299C0.511511 19.1292 0.500649 19.0227 0.512412 18.9175L1.0958 13.6675C1.11656 13.4997 1.19399 13.3438 1.31551 13.225L13.7106 0.955005C13.9358 0.731637 14.2032 0.554425 14.4977 0.433514C14.7922 0.312603 15.1078 0.250366 15.4266 0.250366C15.7454 0.250366 16.0611 0.312603 16.3555 0.433514C16.65 0.554425 16.9175 0.731637 17.1427 0.955005L19.499 3.28751C19.7246 3.51043 19.9036 3.77521 20.0258 4.06671C20.1479 4.3582 20.2108 4.67068 20.2108 4.98626C20.2108 5.30183 20.1479 5.61431 20.0258 5.9058C19.9036 6.1973 19.7246 6.46208 19.499 6.68501L7.11148 18.9475C6.9915 19.0678 6.83398 19.1444 6.66447 19.165L1.36097 19.7425L1.27006 19.75ZM2.58078 14.0875L2.12619 18.1525L6.23262 17.7025L18.4307 5.62751C18.5154 5.54389 18.5827 5.44454 18.6286 5.33514C18.6745 5.22575 18.6981 5.10846 18.6981 4.99001C18.6981 4.87155 18.6745 4.75426 18.6286 4.64487C18.5827 4.53547 18.5154 4.43612 18.4307 4.35251L16.0668 2.01251C15.9824 1.9286 15.882 1.86203 15.7715 1.8166C15.661 1.77118 15.5425 1.7478 15.4228 1.7478C15.3032 1.7478 15.1847 1.77118 15.0742 1.8166C14.9637 1.86203 14.8633 1.9286 14.7788 2.01251L2.58078 14.0875Z" fill="#101820"/>
<path d="M17.1806 8.6575C17.0808 8.65807 16.982 8.63915 16.8897 8.60183C16.7974 8.56451 16.7134 8.50951 16.6426 8.44L11.9377 3.7675C11.867 3.69757 11.811 3.61456 11.7728 3.52319C11.7345 3.43182 11.7148 3.3339 11.7148 3.235C11.7148 3.13611 11.7345 3.03818 11.7728 2.94682C11.811 2.85545 11.867 2.77243 11.9377 2.7025C12.0083 2.63257 12.0922 2.5771 12.1845 2.53926C12.2768 2.50141 12.3757 2.48193 12.4756 2.48193C12.5755 2.48193 12.6744 2.50141 12.7667 2.53926C12.859 2.5771 12.9429 2.63257 13.0135 2.7025L17.7336 7.375C17.8046 7.44472 17.861 7.52768 17.8995 7.61907C17.9379 7.71046 17.9577 7.80849 17.9577 7.9075C17.9577 8.00651 17.9379 8.10454 17.8995 8.19594C17.861 8.28733 17.8046 8.37028 17.7336 8.44C17.661 8.51133 17.5746 8.56738 17.4796 8.60476C17.3845 8.64214 17.2828 8.66008 17.1806 8.6575Z" fill="#101820"/>
<path d="M11.9414 7.37774L6.04297 13.2167L7.11444 14.2773L13.0129 8.4384L11.9414 7.37774Z" fill="#101820"/>
<path d="M22.4854 19.75H10.3631C10.1622 19.75 9.96946 19.671 9.82738 19.5303C9.68529 19.3897 9.60547 19.1989 9.60547 19C9.60547 18.8011 9.68529 18.6103 9.82738 18.4697C9.96946 18.329 10.1622 18.25 10.3631 18.25H22.4854C22.6863 18.25 22.8791 18.329 23.0211 18.4697C23.1632 18.6103 23.243 18.8011 23.243 19C23.243 19.1989 23.1632 19.3897 23.0211 19.5303C22.8791 19.671 22.6863 19.75 22.4854 19.75Z" fill="#101820"/>
</svg>
