<svg width="25" height="25" viewBox="0 0 25 25" fill="none" xmlns="http://www.w3.org/2000/svg">
<g clip-path="url(#clip0_317_1988)">
<path d="M12.5 0.5C9.2435 0.5 8.834 0.515 7.5545 0.572C6.275 0.632 5.4035 0.833 4.64 1.13C3.83914 1.43123 3.11374 1.90374 2.5145 2.5145C1.90411 3.11404 1.43166 3.83936 1.13 4.64C0.833 5.402 0.6305 6.275 0.572 7.55C0.515 8.8325 0.5 9.2405 0.5 12.5015C0.5 15.7595 0.515 16.1675 0.572 17.447C0.632 18.725 0.833 19.5965 1.13 20.36C1.4375 21.149 1.847 21.818 2.5145 22.4855C3.1805 23.153 3.8495 23.564 4.6385 23.87C5.4035 24.167 6.2735 24.3695 7.5515 24.428C8.8325 24.485 9.2405 24.5 12.5 24.5C15.7595 24.5 16.166 24.485 17.447 24.428C18.7235 24.368 19.598 24.167 20.3615 23.87C21.1618 23.5686 21.8867 23.0961 22.4855 22.4855C23.153 21.818 23.5625 21.149 23.87 20.36C24.1655 19.5965 24.368 18.725 24.428 17.447C24.485 16.1675 24.5 15.7595 24.5 12.5C24.5 9.2405 24.485 8.8325 24.428 7.5515C24.368 6.275 24.1655 5.402 23.87 4.64C23.5684 3.83934 23.0959 3.11401 22.4855 2.5145C21.8864 1.90351 21.161 1.43097 20.36 1.13C19.595 0.833 18.722 0.6305 17.4455 0.572C16.1645 0.515 15.758 0.5 12.497 0.5H12.5015H12.5ZM11.4245 2.663H12.5015C15.7055 2.663 16.085 2.6735 17.3495 2.732C18.5195 2.7845 19.1555 2.981 19.5785 3.1445C20.138 3.362 20.5385 3.623 20.9585 4.043C21.3785 4.463 21.638 4.862 21.8555 5.423C22.0205 5.8445 22.2155 6.4805 22.268 7.6505C22.3265 8.915 22.3385 9.2945 22.3385 12.497C22.3385 15.6995 22.3265 16.0805 22.268 17.345C22.2155 18.515 22.019 19.1495 21.8555 19.5725C21.6631 20.0935 21.356 20.5647 20.957 20.951C20.537 21.371 20.138 21.6305 19.577 21.848C19.157 22.013 18.521 22.208 17.3495 22.262C16.085 22.319 15.7055 22.3325 12.5015 22.3325C9.2975 22.3325 8.9165 22.319 7.652 22.262C6.482 22.208 5.8475 22.013 5.4245 21.848C4.90325 21.6559 4.43169 21.3494 4.0445 20.951C3.64513 20.5641 3.33758 20.0925 3.1445 19.571C2.981 19.1495 2.7845 18.5135 2.732 17.3435C2.675 16.079 2.663 15.6995 2.663 12.494C2.663 9.29 2.675 8.912 2.732 7.6475C2.786 6.4775 2.981 5.8415 3.146 5.4185C3.3635 4.859 3.6245 4.4585 4.0445 4.0385C4.4645 3.6185 4.8635 3.359 5.4245 3.1415C5.8475 2.9765 6.482 2.7815 7.652 2.7275C8.759 2.6765 9.188 2.6615 11.4245 2.66V2.663ZM18.9065 4.655C18.7174 4.655 18.5301 4.69225 18.3554 4.76461C18.1807 4.83698 18.022 4.94305 17.8883 5.07677C17.7545 5.21048 17.6485 5.36923 17.5761 5.54394C17.5037 5.71864 17.4665 5.9059 17.4665 6.095C17.4665 6.2841 17.5037 6.47135 17.5761 6.64606C17.6485 6.82077 17.7545 6.97952 17.8883 7.11323C18.022 7.24695 18.1807 7.35302 18.3554 7.42539C18.5301 7.49775 18.7174 7.535 18.9065 7.535C19.2884 7.535 19.6547 7.38329 19.9247 7.11323C20.1948 6.84318 20.3465 6.47691 20.3465 6.095C20.3465 5.71309 20.1948 5.34682 19.9247 5.07677C19.6547 4.80671 19.2884 4.655 18.9065 4.655ZM12.5015 6.338C11.6841 6.32525 10.8723 6.47523 10.1135 6.77921C9.35459 7.08319 8.66377 7.53511 8.08123 8.10863C7.49868 8.68216 7.03605 9.36585 6.72026 10.1199C6.40448 10.8739 6.24185 11.6833 6.24185 12.5007C6.24185 13.3182 6.40448 14.1276 6.72026 14.8816C7.03605 15.6356 7.49868 16.3193 8.08123 16.8929C8.66377 17.4664 9.35459 17.9183 10.1135 18.2223C10.8723 18.5263 11.6841 18.6763 12.5015 18.6635C14.1193 18.6383 15.6623 17.9779 16.7975 16.8249C17.9326 15.6719 18.5689 14.1188 18.5689 12.5007C18.5689 10.8827 17.9326 9.32962 16.7975 8.17662C15.6623 7.02363 14.1193 6.36324 12.5015 6.338ZM12.5015 8.4995C13.5625 8.4995 14.58 8.92098 15.3303 9.67122C16.0805 10.4215 16.502 11.439 16.502 12.5C16.502 13.561 16.0805 14.5785 15.3303 15.3288C14.58 16.079 13.5625 16.5005 12.5015 16.5005C11.4405 16.5005 10.423 16.079 9.67272 15.3288C8.92248 14.5785 8.501 13.561 8.501 12.5C8.501 11.439 8.92248 10.4215 9.67272 9.67122C10.423 8.92098 11.4405 8.4995 12.5015 8.4995Z" fill="black"/>
</g>
<defs>
<clipPath id="clip0_317_1988">
<rect width="24" height="24" fill="white" transform="translate(0.5 0.5)"/>
</clipPath>
</defs>
</svg>
