<svg width="40" height="41" viewBox="0 0 40 41" fill="none" xmlns="http://www.w3.org/2000/svg">
<path d="M14.3335 21.3333C17.0949 21.3333 19.3335 19.0947 19.3335 16.3333C19.3335 13.5718 17.0949 11.3333 14.3335 11.3333C11.5721 11.3333 9.3335 13.5718 9.3335 16.3333C9.3335 19.0947 11.5721 21.3333 14.3335 21.3333Z" stroke="#868686" stroke-width="2" stroke-linecap="round" stroke-linejoin="round"/>
<path d="M14.3333 3C10.7971 3 7.40573 4.40476 4.90524 6.90524C2.40476 9.40573 1 12.7971 1 16.3333C1 19.4867 1.67 21.55 3.5 23.8333L14.3333 36.3333L25.1667 23.8333C26.9967 21.55 27.6667 19.4867 27.6667 16.3333C27.6667 12.7971 26.2619 9.40573 23.7614 6.90524C21.2609 4.40476 17.8696 3 14.3333 3V3Z" stroke="#868686" stroke-width="2" stroke-linecap="round" stroke-linejoin="round"/>
</svg>
