<svg width="20" height="32" viewBox="0 0 20 32" fill="none" xmlns="http://www.w3.org/2000/svg">
<path d="M17.7778 0.452148H2.22222C1.63285 0.452148 1.06762 0.686275 0.650874 1.10302C0.234127 1.51977 0 2.085 0 2.67437V29.341C0 29.9304 0.234127 30.4956 0.650874 30.9124C1.06762 31.3291 1.63285 31.5633 2.22222 31.5633H17.7778C18.3671 31.5633 18.9324 31.3291 19.3491 30.9124C19.7659 30.4956 20 29.9304 20 29.341V2.67437C20 2.085 19.7659 1.51977 19.3491 1.10302C18.9324 0.686275 18.3671 0.452148 17.7778 0.452148ZM2.22222 2.67437H17.7778V22.6744H2.22222V2.67437ZM2.22222 29.341V24.8966H17.7778V29.341H2.22222Z" fill="#868686"/>
</svg>
