<svg width="25" height="25" viewBox="0 0 25 25" fill="none" xmlns="http://www.w3.org/2000/svg">
<path d="M21.6817 10.3744C21.8348 9.01283 21.633 7.63484 21.0959 6.37439C20.5587 5.11393 19.7046 4.01389 18.6166 3.18123L18.5548 3.13323C18.5548 3.13323 16.2714 1.13095 11.2588 1.60409C6.24627 2.07723 4.08627 6.50695 4.0657 6.54809C3.41291 7.93507 3.14754 9.47283 3.2977 10.9984C3.3366 11.8023 3.56267 12.5861 3.9579 13.2873C4.35313 13.9885 4.90662 14.5877 5.57428 15.0372L5.63599 15.0852C5.7258 15.1557 5.8318 15.2027 5.94436 15.2219C6.05692 15.241 6.17248 15.2318 6.28056 15.1949C6.39574 15.1574 6.49893 15.0901 6.57963 14.9998C6.66033 14.9094 6.71566 14.7993 6.73999 14.6807L6.87027 14.1115C7.11027 13.2475 6.67142 12.9252 6.67142 12.9184C5.48513 11.9721 5.78685 9.75723 5.9857 8.84523C5.9857 8.77666 5.9857 8.70809 6.04056 8.64637C6.19827 8.15952 7.68627 3.9218 11.9788 3.72295C16.2714 3.52409 17.6223 5.86923 17.8143 6.23266C18.0063 6.59609 18.8086 8.04295 18.3286 10.8338C18.1177 12.5 17.4375 14.0719 16.3674 15.3664C15.9745 15.7612 15.4965 16.0609 14.9701 16.2427C14.4436 16.4246 13.8825 16.4837 13.3297 16.4155C13.0729 16.3905 12.8244 16.3109 12.6009 16.1819C12.3774 16.053 12.184 15.8778 12.0337 15.6681C11.6814 15.0739 11.5663 14.3686 11.7114 13.6932C11.7114 13.6932 12.212 11.9378 12.3971 11.2795C12.5823 10.6212 12.836 9.2978 12.836 9.28409C12.9389 8.57063 12.7911 7.84355 12.4177 7.22695C12.2561 7.05421 12.0572 6.92059 11.8362 6.83623C11.6152 6.75187 11.3779 6.71899 11.1423 6.74009C10.9493 6.74109 10.7567 6.75713 10.5663 6.78809H10.4566C10.0055 6.96866 9.60912 7.2633 9.3062 7.64315C9.00328 8.023 8.80423 8.47503 8.72856 8.95495C8.50396 9.9603 8.5561 11.0077 8.87942 11.9858C8.983 12.2928 9.00195 12.6221 8.93428 12.9389C8.63942 14.2692 7.91256 17.5401 7.4737 19.1104C7.17448 20.2294 7.01328 21.3808 6.9937 22.5389C6.99207 22.6635 7.02278 22.7864 7.08285 22.8955C7.23094 23.1624 7.47673 23.3615 7.76856 23.4509C8.05986 23.5141 8.36408 23.4732 8.62839 23.3354C8.89269 23.1976 9.10039 22.9716 9.21542 22.6967C9.63816 21.6779 9.97309 20.625 10.2166 19.5492C10.28 19.3042 10.3948 19.0755 10.5532 18.8781C10.7115 18.6807 10.91 18.5191 11.1354 18.4041C11.3723 18.2784 11.634 18.2064 11.9019 18.1934C12.1697 18.1803 12.4372 18.2265 12.6851 18.3287C15.9423 19.7001 18.6988 16.9572 18.7263 16.9572L18.8017 16.8955C18.8017 16.8955 21.2154 15.1469 21.6817 10.3744Z" fill="black"/>
</svg>
