<svg width="25" height="28" viewBox="0 0 25 28" fill="none" xmlns="http://www.w3.org/2000/svg">
<path d="M14.3754 4.24507V2.96573H15.5721C15.8056 2.96573 16.0099 2.7622 16.0099 2.5296V0.436137C16.0099 0.203531 15.8056 0 15.5721 0H10.4641C10.2306 0 10.0263 0.203531 10.0263 0.436137V2.5296C10.0263 2.7622 10.2306 2.96573 10.4641 2.96573H11.6608V4.24507C8.82954 4.5649 6.31932 5.87331 4.42207 7.79232L3.92586 7.29803L4.74314 6.48391C4.91827 6.30945 4.91827 6.04777 4.74314 5.87331L3.0502 4.18692C2.87507 4.01246 2.61238 4.01246 2.43724 4.18692L0.131349 6.42575C-0.0437828 6.60021 -0.0437828 6.86189 0.131349 7.03635L1.82428 8.72274C1.91185 8.80997 2.0286 8.83905 2.14536 8.83905C2.26211 8.83905 2.37887 8.80997 2.46643 8.72274L3.3129 7.87954L3.86748 8.43198C2.11617 10.4964 1.06538 13.1713 1.06538 16.0789C1.06538 22.6501 6.43608 28 13.0327 28C19.6293 28 25 22.6501 25 16.0789C24.9708 9.973 20.3298 4.91381 14.3754 4.24507ZM2.14536 7.82139L1.06538 6.71651L2.69994 5.08827L3.77992 6.16407L3.13777 6.80374C3.0502 6.89097 2.93345 7.00727 2.8167 7.12357L2.14536 7.82139ZM12.0987 2.09346H10.9019V0.872274H15.1343V2.09346H13.9375C13.704 2.09346 13.4997 2.29699 13.4997 2.5296V4.18692C13.3538 4.18692 13.1786 4.18692 13.0327 4.18692C12.8867 4.18692 12.7116 4.18692 12.5657 4.18692V2.5296C12.5365 2.26791 12.3322 2.09346 12.0987 2.09346ZM13.0035 27.1277C6.9031 27.1277 1.91185 22.1848 1.91185 16.0789C1.91185 9.973 6.87391 5.03012 13.0035 5.03012C13.237 5.03012 13.4705 5.03011 13.704 5.05919C13.8208 5.05919 13.9375 5.08827 14.0543 5.08827C19.6877 5.61163 24.0952 10.351 24.0952 16.0789C24.0952 22.1848 19.1331 27.1277 13.0035 27.1277Z" fill="black"/>
<path d="M19.3085 8.92631C19.2793 8.89723 19.2501 8.86816 19.2209 8.83908C17.5572 7.41437 15.3972 6.57117 13.0329 6.57117C7.74981 6.57117 3.48828 10.8453 3.48828 16.079C3.48828 21.3126 7.74981 25.6158 13.0038 25.6158C18.2577 25.6158 22.5484 21.3417 22.5484 16.108C22.5776 13.2295 21.2933 10.6709 19.3085 8.92631ZM13.0038 24.7435C8.21683 24.7435 4.33475 20.8765 4.33475 16.108C4.33475 11.3396 8.21683 7.47252 13.0038 7.47252C15.0178 7.47252 16.8566 8.17034 18.3161 9.30429L13.5875 14.7124C13.4124 14.6542 13.2081 14.5961 13.0329 14.5961C12.2157 14.5961 11.5443 15.2648 11.5443 16.079C11.5443 16.8931 12.2157 17.5618 13.0329 17.5618C13.8502 17.5618 14.4924 16.8931 14.4924 16.079C14.4924 15.7882 14.4048 15.4974 14.2589 15.2648L19.0166 9.82766C20.6803 11.3978 21.7019 13.6075 21.7019 16.079C21.7019 20.8474 17.7907 24.7435 13.0038 24.7435ZM13.6167 16.079C13.6167 16.4279 13.354 16.6895 13.0038 16.6895C12.6535 16.6895 12.3908 16.4279 12.3908 16.079C12.3908 15.7591 12.6535 15.4684 13.0038 15.4684C13.354 15.4684 13.6167 15.7591 13.6167 16.079Z" fill="black"/>
</svg>
