<svg width="75" height="31" viewBox="0 0 75 31" fill="none" xmlns="http://www.w3.org/2000/svg">
<g clip-path="url(#clip0_230_2191)">
<path d="M11.5 27.5245C11.4265 27.5245 11.353 27.5085 11.285 27.476L0.785 22.476C0.611 22.393 0.5 22.2175 0.5 22.0245V6.52447C0.5 6.35297 0.588 6.19347 0.733 6.10147C0.8775 6.00997 1.06 5.99947 1.215 6.07297L11.5 10.9705L21.785 6.07247C21.94 5.99947 22.1215 6.00947 22.2665 6.10147C22.412 6.19347 22.5 6.35297 22.5 6.52447V22.0245C22.5 22.2175 22.389 22.393 22.215 22.476L11.715 27.476C11.647 27.5085 11.5735 27.5245 11.5 27.5245ZM1.5 21.7085L11.5 26.4705L21.5 21.7085V7.31647L11.715 11.976C11.5795 12.0405 11.421 12.0405 11.2855 11.976L1.5 7.31647V21.7085Z" fill="#8C4C27"/>
<path d="M11.4997 9.60199L2.78316 5.45149C2.53366 5.33249 2.42816 5.03399 2.54666 4.78499C2.66566 4.53549 2.96366 4.43099 3.21316 4.54799L11.4997 8.49449L19.7862 4.54799C20.0362 4.43099 20.3337 4.53549 20.4527 4.78499C20.5712 5.03399 20.4657 5.33249 20.2162 5.45149L11.4997 9.60199Z" fill="#8C4C27"/>
<path d="M12 11.5245H11V27.0245H12V11.5245Z" fill="#8C4C27"/>
</g>
<path d="M35.4854 8.70312H39.7217C40.6826 8.70312 41.4941 8.84961 42.1562 9.14258C42.8242 9.43555 43.3311 9.86914 43.6768 10.4434C44.0283 11.0117 44.2041 11.7119 44.2041 12.5439C44.2041 13.1299 44.084 13.666 43.8438 14.1523C43.6094 14.6328 43.2695 15.043 42.8242 15.3828C42.3848 15.7168 41.8574 15.9658 41.2422 16.1299L40.7676 16.3145H36.7861L36.7686 14.9346H39.7744C40.3838 14.9346 40.8906 14.8291 41.2949 14.6182C41.6992 14.4014 42.0039 14.1113 42.209 13.748C42.4141 13.3848 42.5166 12.9834 42.5166 12.5439C42.5166 12.0518 42.4199 11.6211 42.2266 11.252C42.0332 10.8828 41.7285 10.5986 41.3125 10.3994C40.9023 10.1943 40.3721 10.0918 39.7217 10.0918H37.1816V21.5H35.4854V8.70312ZM42.9648 21.5L39.8535 15.6992L41.6201 15.6904L44.7754 21.3945V21.5H42.9648ZM50.2773 21.6758C49.6152 21.6758 49.0146 21.5645 48.4756 21.3418C47.9424 21.1133 47.4824 20.7939 47.0957 20.3838C46.7148 19.9736 46.4219 19.4873 46.2168 18.9248C46.0117 18.3623 45.9092 17.7471 45.9092 17.0791V16.71C45.9092 15.9365 46.0234 15.248 46.252 14.6445C46.4805 14.0352 46.791 13.5195 47.1836 13.0977C47.5762 12.6758 48.0215 12.3564 48.5195 12.1396C49.0176 11.9229 49.5332 11.8145 50.0664 11.8145C50.7461 11.8145 51.332 11.9316 51.8242 12.166C52.3223 12.4004 52.7295 12.7285 53.0459 13.1504C53.3623 13.5664 53.5967 14.0586 53.749 14.627C53.9014 15.1895 53.9775 15.8047 53.9775 16.4727V17.2021H46.876V15.875H52.3516V15.752C52.3281 15.3301 52.2402 14.9199 52.0879 14.5215C51.9414 14.123 51.707 13.7949 51.3848 13.5371C51.0625 13.2793 50.623 13.1504 50.0664 13.1504C49.6973 13.1504 49.3574 13.2295 49.0469 13.3877C48.7363 13.54 48.4697 13.7686 48.2471 14.0732C48.0244 14.3779 47.8516 14.75 47.7285 15.1895C47.6055 15.6289 47.5439 16.1357 47.5439 16.71V17.0791C47.5439 17.5303 47.6055 17.9551 47.7285 18.3535C47.8574 18.7461 48.042 19.0918 48.2822 19.3906C48.5283 19.6895 48.8242 19.9238 49.1699 20.0938C49.5215 20.2637 49.9199 20.3486 50.3652 20.3486C50.9395 20.3486 51.4258 20.2314 51.8242 19.9971C52.2227 19.7627 52.5713 19.4492 52.8701 19.0566L53.8545 19.8389C53.6494 20.1494 53.3887 20.4453 53.0723 20.7266C52.7559 21.0078 52.3662 21.2363 51.9033 21.4121C51.4463 21.5879 50.9043 21.6758 50.2773 21.6758ZM61.4834 19.874V14.9785C61.4834 14.6035 61.4072 14.2783 61.2549 14.0029C61.1084 13.7217 60.8857 13.5049 60.5869 13.3525C60.2881 13.2002 59.9189 13.124 59.4795 13.124C59.0693 13.124 58.709 13.1943 58.3984 13.335C58.0938 13.4756 57.8535 13.6602 57.6777 13.8887C57.5078 14.1172 57.4229 14.3633 57.4229 14.627H55.7969C55.7969 14.2871 55.8848 13.9502 56.0605 13.6162C56.2363 13.2822 56.4883 12.9805 56.8164 12.7109C57.1504 12.4355 57.5488 12.2188 58.0117 12.0605C58.4805 11.8965 59.002 11.8145 59.5762 11.8145C60.2676 11.8145 60.877 11.9316 61.4043 12.166C61.9375 12.4004 62.3535 12.7549 62.6523 13.2295C62.957 13.6982 63.1094 14.2871 63.1094 14.9961V19.4258C63.1094 19.7422 63.1357 20.0791 63.1885 20.4365C63.2471 20.7939 63.332 21.1016 63.4434 21.3594V21.5H61.7471C61.665 21.3125 61.6006 21.0635 61.5537 20.7529C61.5068 20.4365 61.4834 20.1436 61.4834 19.874ZM61.7646 15.7344L61.7822 16.877H60.1387C59.6758 16.877 59.2627 16.915 58.8994 16.9912C58.5361 17.0615 58.2314 17.1699 57.9854 17.3164C57.7393 17.4629 57.5518 17.6475 57.4229 17.8701C57.2939 18.0869 57.2295 18.3418 57.2295 18.6348C57.2295 18.9336 57.2969 19.2061 57.4316 19.4521C57.5664 19.6982 57.7686 19.8945 58.0381 20.041C58.3135 20.1816 58.6504 20.252 59.0488 20.252C59.5469 20.252 59.9863 20.1465 60.3672 19.9355C60.748 19.7246 61.0498 19.4668 61.2725 19.1621C61.501 18.8574 61.624 18.5615 61.6416 18.2744L62.3359 19.0566C62.2949 19.3027 62.1836 19.5752 62.002 19.874C61.8203 20.1729 61.5771 20.46 61.2725 20.7354C60.9736 21.0049 60.6162 21.2305 60.2002 21.4121C59.79 21.5879 59.3271 21.6758 58.8115 21.6758C58.167 21.6758 57.6016 21.5498 57.1152 21.2979C56.6348 21.0459 56.2598 20.709 55.9902 20.2871C55.7266 19.8594 55.5947 19.3818 55.5947 18.8545C55.5947 18.3447 55.6943 17.8965 55.8936 17.5098C56.0928 17.1172 56.3799 16.792 56.7549 16.5342C57.1299 16.2705 57.5811 16.0713 58.1084 15.9365C58.6357 15.8018 59.2246 15.7344 59.875 15.7344H61.7646ZM71.6611 19.6543V8H73.2959V21.5H71.8018L71.6611 19.6543ZM65.2627 16.8506V16.666C65.2627 15.9395 65.3506 15.2803 65.5264 14.6885C65.708 14.0908 65.9629 13.5781 66.291 13.1504C66.625 12.7227 67.0205 12.3945 67.4775 12.166C67.9404 11.9316 68.4561 11.8145 69.0244 11.8145C69.6221 11.8145 70.1436 11.9199 70.5889 12.1309C71.04 12.3359 71.4209 12.6377 71.7314 13.0361C72.0479 13.4287 72.2969 13.9033 72.4785 14.46C72.6602 15.0166 72.7861 15.6465 72.8564 16.3496V17.1582C72.792 17.8555 72.666 18.4824 72.4785 19.0391C72.2969 19.5957 72.0479 20.0703 71.7314 20.4629C71.4209 20.8555 71.04 21.1572 70.5889 21.3682C70.1377 21.5732 69.6104 21.6758 69.0068 21.6758C68.4502 21.6758 67.9404 21.5557 67.4775 21.3154C67.0205 21.0752 66.625 20.7383 66.291 20.3047C65.9629 19.8711 65.708 19.3613 65.5264 18.7754C65.3506 18.1836 65.2627 17.542 65.2627 16.8506ZM66.8975 16.666V16.8506C66.8975 17.3252 66.9443 17.7705 67.0381 18.1865C67.1377 18.6025 67.29 18.9688 67.4951 19.2852C67.7002 19.6016 67.9609 19.8506 68.2773 20.0322C68.5938 20.208 68.9717 20.2959 69.4111 20.2959C69.9502 20.2959 70.3926 20.1816 70.7383 19.9531C71.0898 19.7246 71.3711 19.4229 71.582 19.0479C71.793 18.6729 71.957 18.2656 72.0742 17.8262V15.708C72.0039 15.3857 71.9014 15.0752 71.7666 14.7764C71.6377 14.4717 71.4678 14.2021 71.2568 13.9678C71.0518 13.7275 70.7969 13.5371 70.4922 13.3965C70.1934 13.2559 69.8389 13.1855 69.4287 13.1855C68.9834 13.1855 68.5996 13.2793 68.2773 13.4668C67.9609 13.6484 67.7002 13.9004 67.4951 14.2227C67.29 14.5391 67.1377 14.9082 67.0381 15.3301C66.9443 15.7461 66.8975 16.1914 66.8975 16.666Z" fill="#8C4C27"/>
<defs>
<clipPath id="clip0_230_2191">
<rect width="24" height="24" fill="white" transform="translate(0 3.5)"/>
</clipPath>
</defs>
</svg>
