<svg width="24" height="24" viewBox="0 0 24 24" fill="none" xmlns="http://www.w3.org/2000/svg">
<path fill-rule="evenodd" clip-rule="evenodd" d="M23.5 20C23.5 21.381 22.381 22.5 21 22.5H3C1.619 22.5 0.5 21.381 0.5 20V5.49999C0.5 4.39549 1.3955 3.49999 2.5 3.49999H12.5855L16.635 2.03299C16.8915 1.93949 17.1755 2.07199 17.269 2.32749L17.6955 3.49999H19.5C20.6045 3.49999 21.5 4.39549 21.5 5.49999V6.49999C22.6045 6.49999 23.5 7.39549 23.5 8.49999V20ZM2.5 4.49999C1.948 4.49999 1.5 4.94799 1.5 5.49999C1.5 6.05199 1.948 6.49999 2.5 6.49999H4.2225H4.317C4.3235 6.49749 4.3275 6.49199 4.334 6.48949L9.825 4.49999H2.5ZM17.039 4.59049L16.508 3.12849L15.482 3.49999H15.4835L12.7265 4.49999H12.7215L7.202 6.49999H17.733L17.039 4.59049ZM20.5 5.49999C20.5 4.94799 20.052 4.49999 19.5 4.49999H18.0585L18.7855 6.49999H20.5V5.49999ZM21.5 7.49999H2.5C2.134 7.49999 1.795 7.39449 1.5 7.22249V20C1.5 20.8285 2.172 21.5 3 21.5H21C21.8285 21.5 22.5 20.8285 22.5 20V16.5H20.5C19.3955 16.5 18.5 15.6045 18.5 14.5C18.5 13.3955 19.3955 12.5 20.5 12.5H22.5V8.49999C22.5 7.94799 22.052 7.49999 21.5 7.49999ZM22.5 15.5V13.5H20.5C19.948 13.5 19.5 13.948 19.5 14.5C19.5 15.052 19.948 15.5 20.5 15.5H22.5ZM20.5 14H21.5V15H20.5V14Z" fill="black"/>
</svg>
