<svg width="24" height="24" viewBox="0 0 24 24" fill="none" xmlns="http://www.w3.org/2000/svg">
<g clip-path="url(#clip0_261_1089)">
<path d="M11.5 24.0245C11.4265 24.0245 11.353 24.0085 11.285 23.976L0.785 18.976C0.611 18.893 0.5 18.7175 0.5 18.5245V3.02447C0.5 2.85297 0.588 2.69347 0.733 2.60147C0.8775 2.50997 1.06 2.49947 1.215 2.57297L11.5 7.47047L21.785 2.57247C21.94 2.49947 22.1215 2.50947 22.2665 2.60147C22.412 2.69347 22.5 2.85297 22.5 3.02447V18.5245C22.5 18.7175 22.389 18.893 22.215 18.976L11.715 23.976C11.647 24.0085 11.5735 24.0245 11.5 24.0245ZM1.5 18.2085L11.5 22.9705L21.5 18.2085V3.81647L11.715 8.47597C11.5795 8.54047 11.421 8.54047 11.2855 8.47597L1.5 3.81647V18.2085Z" fill="black"/>
<path d="M11.5016 6.10199L2.78511 1.95149C2.53561 1.83249 2.43011 1.53399 2.54861 1.28499C2.66761 1.03549 2.96561 0.930989 3.21511 1.04799L11.5016 4.99449L19.7881 1.04799C20.0381 0.930989 20.3356 1.03549 20.4546 1.28499C20.5731 1.53399 20.4676 1.83249 20.2181 1.95149L11.5016 6.10199Z" fill="black"/>
<path d="M12 8.02448H11V23.5245H12V8.02448Z" fill="black"/>
</g>
<defs>
<clipPath id="clip0_261_1089">
<rect width="24" height="24" fill="white"/>
</clipPath>
</defs>
</svg>
