<svg width="28" height="28" viewBox="0 0 28 28" fill="none" xmlns="http://www.w3.org/2000/svg">
<g clip-path="url(#clip0_261_1108)">
<path d="M21.4675 11.8533C21.0942 11.9466 20.9075 12.4133 21.0942 12.7866C21.5608 13.9066 21.7475 15.12 21.7475 16.3333C21.7475 21.9333 17.1742 26.4133 11.6675 26.4133C6.16083 26.4133 1.5875 21.9333 1.5875 16.3333C1.5875 10.7333 6.0675 6.25331 11.6675 6.25331C12.6942 6.25331 13.8142 6.43997 14.8408 6.71997C15.2142 6.81331 15.5875 6.62664 15.6808 6.25331C15.7742 5.87997 15.5875 5.50664 15.2142 5.41331C14.0942 5.03997 12.8808 4.85331 11.6675 4.85331C5.32083 4.85331 0.1875 9.98664 0.1875 16.3333C0.1875 22.68 5.32083 27.8133 11.6675 27.8133C18.0142 27.8133 23.1475 22.68 23.1475 16.3333C23.1475 14.9333 22.8675 13.5333 22.4008 12.2266C22.3075 11.9466 21.8408 11.76 21.4675 11.8533ZM11.6675 14C12.0408 14 12.4142 13.72 12.4142 13.2533C12.4142 12.7866 12.1342 12.5066 11.6675 12.5066C9.61417 12.5066 7.93417 14.1866 7.93417 16.24C7.93417 18.2933 9.61417 19.9733 11.6675 19.9733C13.7208 19.9733 15.4008 18.2933 15.4008 16.24C15.4008 15.8666 15.1208 15.4933 14.6542 15.4933C14.1875 15.4933 14.0008 15.96 14.0008 16.3333C14.0008 17.64 12.9742 18.6666 11.6675 18.6666C10.3608 18.6666 9.33417 17.64 9.33417 16.3333C9.33417 15.0266 10.3608 14 11.6675 14ZM15.1208 10.36C15.3075 9.98664 15.1208 9.61331 14.7475 9.42664C13.8142 8.95997 12.6942 8.77331 11.6675 8.77331C7.4675 8.77331 4.01417 12.1333 4.01417 16.3333C4.01417 20.5333 7.4675 23.9866 11.6675 23.9866C15.8675 23.9866 19.3208 20.5333 19.3208 16.3333C19.3208 15.2133 19.1342 14.1866 18.6675 13.2533C18.4808 12.88 18.1075 12.6933 17.7342 12.88C17.3608 13.0666 17.2675 13.44 17.3608 13.8133C17.7342 14.6533 17.9208 15.4933 17.9208 16.3333C17.9208 19.7866 15.1208 22.5866 11.6675 22.5866C8.21417 22.5866 5.41417 19.7866 5.41417 16.3333C5.41417 12.88 8.21417 10.08 11.6675 10.08C12.6008 10.08 13.4408 10.2666 14.1875 10.64C14.5608 10.8266 14.9342 10.64 15.1208 10.36ZM27.8142 5.69331C27.7208 5.41331 27.5342 5.22664 27.2542 5.22664L23.4275 4.57331L22.7742 0.74664C22.7742 0.46664 22.5875 0.279973 22.3075 0.18664C22.0275 0.0933062 21.7475 0.18664 21.5608 0.373306L16.9875 4.94664C16.8008 5.13331 16.7075 5.31997 16.8008 5.59997L17.5475 9.51997L11.6675 15.4H11.5742C11.0142 15.4 10.5475 15.8666 10.5475 16.4266C10.5475 16.9866 11.0142 17.4533 11.5742 17.4533C12.1342 17.4533 12.6008 16.9866 12.6008 16.4266L18.5742 10.4533L22.4008 11.2H22.4942C22.6808 11.2 22.8675 11.1066 22.9608 11.0133L27.5342 6.43997C27.8142 6.25331 27.9075 5.97331 27.8142 5.69331ZM18.2942 5.59997L21.6542 2.23997L22.1208 4.85331L18.8542 8.11997L18.2942 5.59997ZM22.4008 9.70664L19.8808 9.23997L23.1475 5.97331L25.6675 6.43997L22.4008 9.70664Z" fill="#262324"/>
</g>
<defs>
<clipPath id="clip0_261_1108">
<rect width="28" height="28" fill="white"/>
</clipPath>
</defs>
</svg>
