<svg width="21" height="22" viewBox="0 0 21 22" fill="none" xmlns="http://www.w3.org/2000/svg">
<path d="M12.8472 14.6134C12.7771 13.8397 12.804 13.2997 12.804 12.5926C13.1544 12.4088 13.7823 11.2366 13.8883 10.2464C14.1639 10.2238 14.5983 9.95503 14.7255 8.89375C14.7941 8.32399 14.5215 8.00335 14.3554 7.90255C14.8037 6.55423 15.7349 2.38303 12.6331 1.95199C12.3139 1.39135 11.4965 1.10767 10.4343 1.10767C6.18433 1.18591 5.67169 4.31695 6.60337 7.90255C6.43777 8.00335 6.16513 8.32399 6.23329 8.89375C6.36097 9.95503 6.7949 10.2238 7.07042 10.2464C7.17602 11.2361 7.82881 12.4088 8.18017 12.5926C8.18017 13.2997 8.20657 13.8397 8.13649 14.6134C7.29553 16.8742 1.62145 16.2397 1.35938 20.6H19.5994C19.3378 16.2397 13.6882 16.8742 12.8472 14.6134Z" stroke="black" stroke-width="2" stroke-miterlimit="10" stroke-linecap="round"/>
</svg>
