<svg width="24" height="24" viewBox="0 0 24 24" fill="none" xmlns="http://www.w3.org/2000/svg">
<path d="M19.1215 23.9998C19.0463 23.9993 18.9723 23.9796 18.9054 23.9423L12 20.1334L5.0946 23.9423C5.01486 23.9863 4.92542 24.0053 4.83633 23.997C4.74725 23.9886 4.66207 23.9534 4.59038 23.8953C4.51675 23.8366 4.46002 23.7563 4.42685 23.6637C4.39368 23.5712 4.38544 23.4703 4.4031 23.3728L5.71887 15.337L0.148449 9.65239C0.0850553 9.58648 0.0394573 9.50294 0.0166012 9.41084C-0.00625502 9.31874 -0.00549689 9.22158 0.018793 9.12991C0.0466258 9.03705 0.0978237 8.95454 0.166577 8.89174C0.23533 8.82894 0.318886 8.78837 0.407762 8.77462L8.12472 7.59903L11.5726 0.284252C11.6129 0.198668 11.6741 0.126845 11.7495 0.0766912C11.825 0.0265377 11.9116 0 12 0C12.0884 0 12.175 0.0265377 12.2505 0.0766912C12.3259 0.126845 12.3871 0.198668 12.4274 0.284252L15.8753 7.59903L23.5922 8.77462C23.6811 8.78837 23.7647 8.82894 23.8334 8.89174C23.9022 8.95454 23.9534 9.03705 23.9812 9.12991C24.0055 9.22158 24.0063 9.31874 23.9834 9.41084C23.9605 9.50294 23.9149 9.58648 23.8516 9.65239L18.2811 15.3475L19.5969 23.3833C19.6146 23.4807 19.6063 23.5816 19.5732 23.6742C19.54 23.7667 19.4833 23.847 19.4096 23.9058C19.3253 23.9699 19.2243 24.0028 19.1215 23.9998ZM12 19.0258C12.0752 19.0263 12.1492 19.0459 12.2161 19.0832L18.4588 22.5369L17.2823 15.2534C17.2678 15.1674 17.2734 15.0788 17.2986 14.9957C17.3238 14.9126 17.3677 14.8378 17.4264 14.778L22.4541 9.63672L15.4863 8.59175C15.4103 8.58026 15.338 8.54912 15.2753 8.50094C15.2126 8.45276 15.1615 8.38894 15.1262 8.31483L12 1.63226L8.86424 8.29393C8.82891 8.36804 8.77777 8.43186 8.7151 8.48004C8.65244 8.52822 8.58008 8.55936 8.50408 8.57085L1.53625 9.61582L6.56404 14.7571C6.62271 14.8169 6.66664 14.8917 6.69181 14.9748C6.71698 15.0579 6.72258 15.1465 6.7081 15.2325L5.51718 22.5369L11.7839 19.0832C11.8508 19.0459 11.9248 19.0263 12 19.0258Z" fill="#010101"/>
</svg>
